HIERARCHY
ROOT Hips
{
	OFFSET -0.001795 -0.223333 0.028219
	CHANNELS 6 Xposition Yposition Zposition Zrotation Yrotation Xrotation 
	JOINT LeftUpLeg
	{
		OFFSET 0.069520 -0.091406 -0.006815
		CHANNELS 3 Zrotation Yrotation Xrotation
		JOINT LeftLeg
		{
			OFFSET 0.034277 -0.375199 -0.004496
			CHANNELS 3 Zrotation Yrotation Xrotation
			JOINT LeftFoot
			{
				OFFSET -0.013596 -0.397961 -0.043693
				CHANNELS 3 Zrotation Yrotation Xrotation
				JOINT LeftToe
				{
					OFFSET 0.026358 -0.055791 0.119288
					CHANNELS 3 Zrotation Yrotation Xrotation
					End Site
					{
						OFFSET 0.000000 0.000000 0.000000
					}
				}
			}
		}
	}
	JOINT RightUpLeg
	{
		OFFSET -0.067670 -0.090522 -0.004320
		CHANNELS 3 Zrotation Yrotation Xrotation
		JOINT RightLeg
		{
			OFFSET -0.038290 -0.382569 -0.008850
			CHANNELS 3 Zrotation Yrotation Xrotation
			JOINT RightFoot
			{
				OFFSET 0.015774 -0.398415 -0.042312
				CHANNELS 3 Zrotation Yrotation Xrotation
				JOINT RightToe
				{
					OFFSET -0.025372 -0.048144 0.123348
					CHANNELS 3 Zrotation Yrotation Xrotation
					End Site
					{
						OFFSET 0.000000 0.000000 0.000000
					}
				}
			}
		}
	}
	JOINT Spine
	{
		OFFSET -0.002533 0.108963 -0.026696
		CHANNELS 3 Zrotation Yrotation Xrotation
		JOINT Spine1
		{
			OFFSET 0.005487 0.135180 0.001092
			CHANNELS 3 Zrotation Yrotation Xrotation
			JOINT Spine2
			{
				OFFSET 0.001457 0.052922 0.025425
				CHANNELS 3 Zrotation Yrotation Xrotation
				JOINT Neck
				{
					OFFSET -0.002778 0.213870 -0.042857
					CHANNELS 3 Zrotation Yrotation Xrotation
					JOINT Head
					{
						OFFSET 0.005152 0.064970 0.051349
						CHANNELS 3 Zrotation Yrotation Xrotation
						End Site
						{
							OFFSET 0.000000 0.000000 0.000000
						}
					}
				}
				JOINT LeftShoulder
				{
					OFFSET 0.078845 0.121749 -0.034090
					CHANNELS 3 Zrotation Yrotation Xrotation
					JOINT LeftArm
					{
						OFFSET 0.090977 0.030469 -0.008868
						CHANNELS 3 Zrotation Yrotation Xrotation
						JOINT LeftForeArm
						{
							OFFSET 0.259612 -0.012772 -0.027456
							CHANNELS 3 Zrotation Yrotation Xrotation
							JOINT LeftHand
							{
								OFFSET 0.249234 0.008986 -0.001171
								CHANNELS 3 Zrotation Yrotation Xrotation
								End Site
								{
									OFFSET 0.000000 0.000000 0.000000
								}
							}
						}
					}
				}
				JOINT RightShoulder
				{
					OFFSET -0.081759 0.118833 -0.038615
					CHANNELS 3 Zrotation Yrotation Xrotation
					JOINT RightArm
					{
						OFFSET -0.096012 0.032551 -0.009143
						CHANNELS 3 Zrotation Yrotation Xrotation
						JOINT RightForeArm
						{
							OFFSET -0.253742 -0.013329 -0.021401
							CHANNELS 3 Zrotation Yrotation Xrotation
							JOINT RightHand
							{
								OFFSET -0.255298 0.007772 -0.005559
								CHANNELS 3 Zrotation Yrotation Xrotation
								End Site
								{
									OFFSET 0.000000 0.000000 0.000000
								}
							}
						}
					}
				}
			}
		}
	}
}
MOTION
Frames: 9
Frame Time: 0.050000
0.000000 0.937157 0.000000 -1.636918 -4.470634 3.381221 -2.469186 0.150830 1.000856 1.631639 -0.189626 0.018310 -2.457009 -4.358849 1.889424 0.000000 0.000000 0.000000 -2.057208 0.478299 -4.892034 -0.549562 0.524027 9.348359 0.320667 -0.738955 2.678026 0.000000 0.000000 0.000000 3.315784 -0.089193 0.348419 -2.106796 1.014245 0.737593 -1.972039 6.725505 3.775873 7.257236 -3.099809 -13.946778 0.000000 0.000000 0.000000 -20.233418 -2.838784 -1.781663 -32.512637 -3.014422 -2.585945 0.818339 -20.839497 0.457852 0.000000 0.000000 0.000000 17.809900 0.410743 -0.317043 40.953906 5.324147 -2.515529 -3.687736 22.120659 0.278515 0.000000 0.000000 0.000000 
0.001295 0.936215 0.004336 -1.792301 -4.940917 3.460165 -1.734112 0.267920 2.219036 0.323410 0.023078 -1.703216 -2.444347 -4.280487 2.025263 0.000000 0.000000 0.000000 -1.478771 0.757245 -7.967559 -0.692386 0.904667 15.071667 -0.607829 -2.828453 2.415528 0.000000 0.000000 0.000000 3.693476 -0.161141 1.205146 -2.387210 1.148830 0.538763 -2.929645 7.478152 3.493482 8.289079 -3.324111 -15.864561 0.000000 0.000000 0.000000 -19.799333 -2.545086 -2.082363 -33.126133 -3.892835 -2.356755 2.590406 -20.786593 0.100618 0.000000 0.000000 0.000000 18.176334 -0.765771 -0.797722 43.031330 5.653814 -2.526102 -5.482644 22.204240 0.022591 0.000000 0.000000 0.000000 
0.002295 0.933902 0.008932 -1.732384 -6.054567 2.766781 -1.866359 0.409995 3.443419 -0.045493 0.064314 -1.816701 -1.892066 -3.525551 1.239598 0.000000 0.000000 0.000000 -2.117559 1.131837 -12.315542 1.029166 1.079782 24.309298 -1.223675 -4.670884 3.164634 0.000000 0.000000 0.000000 4.097787 -0.263934 2.552291 -2.376174 1.113026 -1.357955 -3.315242 7.387532 5.365384 8.720217 -3.781792 -15.505782 0.000000 0.000000 0.000000 -19.005907 -2.963769 -1.493622 -34.401107 -4.518223 -2.507987 2.304639 -20.241959 0.185647 0.000000 0.000000 0.000000 19.694867 0.289219 -0.371666 41.845182 5.734396 -2.622346 -4.251226 24.131708 0.228289 0.000000 0.000000 0.000000 
0.002620 0.931865 0.014300 -1.896282 -6.191412 2.198435 -0.933189 0.513849 4.754616 -1.509524 0.228577 -2.300016 -1.886990 -3.760675 0.721386 0.000000 0.000000 0.000000 -2.430602 1.398164 -15.425690 2.164532 1.150800 31.497797 -1.035782 -4.954336 4.770750 0.000000 0.000000 0.000000 3.636646 -0.311639 3.581059 -2.125600 1.001253 -1.135038 -2.717076 6.324412 5.944995 8.448250 -3.234194 -18.444940 0.000000 0.000000 0.000000 -20.935844 -2.730196 -1.515532 -33.467369 -6.066412 -2.173852 3.691826 -19.323630 -0.000705 0.000000 0.000000 0.000000 19.983313 0.341069 -0.675869 42.227687 6.316501 -2.394863 -4.158710 25.887355 0.211797 0.000000 0.000000 0.000000 
0.002025 0.931928 0.021208 -2.072894 -6.924590 1.657535 -1.324441 0.626303 5.549045 -0.689191 0.129517 -1.705258 -1.488765 -3.048661 0.427737 0.000000 0.000000 0.000000 -2.486882 1.831358 -19.726101 3.849796 0.912847 37.653508 -1.788906 -8.631545 10.367437 0.000000 0.000000 0.000000 3.526002 -0.375339 4.709423 -1.305649 0.613711 -1.484042 -3.273441 5.714031 6.121172 9.359934 -3.829770 -18.723504 0.000000 0.000000 0.000000 -21.137162 -3.377449 -0.922818 -33.175524 -6.890440 -2.043999 3.052499 -19.185774 0.135941 0.000000 0.000000 0.000000 20.738713 -0.273707 -1.304873 41.688527 5.965474 -2.439469 -2.235886 28.515072 0.630648 0.000000 0.000000 0.000000 
0.000386 0.932418 0.030987 -2.432418 -7.517397 1.428679 -1.304606 0.760806 6.683828 -0.120836 0.076571 -1.958116 -1.276271 -2.528771 0.584085 0.000000 0.000000 0.000000 -2.540605 2.248888 -23.503909 5.006236 0.526464 38.759909 -2.728665 -12.067779 16.743737 0.000000 0.000000 0.000000 3.814125 -0.432379 5.397317 -0.861513 0.405497 -1.610895 -3.123550 4.443599 7.086116 8.541074 -3.218729 -20.795795 0.000000 0.000000 0.000000 -21.397719 -3.789801 -0.192783 -34.088629 -8.860311 -1.821639 3.176737 -19.358478 0.176998 0.000000 0.000000 0.000000 19.393893 0.027539 -1.452569 43.486860 6.068987 -2.407128 -1.353325 30.849692 0.813965 0.000000 0.000000 0.000000 
-0.002585 0.932758 0.043897 -2.535797 -8.152216 1.163993 -1.366636 0.938799 8.080226 0.191435 0.054692 -2.285504 -1.129121 -2.057227 0.979665 0.000000 0.000000 0.000000 -2.152988 2.499862 -24.844923 4.437112 0.619164 34.165453 -3.369540 -12.725078 13.934483 0.000000 0.000000 0.000000 4.131696 -0.484872 5.982824 -0.636670 0.297225 -1.860355 -3.329863 3.962715 7.571255 8.707220 -3.276235 -21.728072 0.000000 0.000000 0.000000 -22.444455 -4.351456 0.320799 -34.430196 -10.174325 -1.613499 2.883200 -20.583745 0.269954 0.000000 0.000000 0.000000 19.615970 0.019201 -1.671341 44.555715 5.755111 -2.553163 -0.433906 32.057063 1.043047 0.000000 0.000000 0.000000 
-0.006958 0.931904 0.059977 -2.693338 -8.280736 0.671634 -1.321152 1.179976 10.036634 0.735365 0.019788 -2.806323 -1.131419 -2.016061 1.103485 0.000000 0.000000 0.000000 -2.002556 2.652791 -25.830422 3.795245 0.527973 27.869917 -2.815488 -9.745464 6.666450 0.000000 0.000000 0.000000 4.174450 -0.516836 6.523030 0.196315 -0.084608 -2.143260 -3.645311 4.019686 8.230889 9.004479 -3.336819 -22.533231 0.000000 0.000000 0.000000 -23.257864 -5.296214 0.847295 -35.352974 -11.176066 -1.429514 0.974351 -22.136070 0.658549 0.000000 0.000000 0.000000 19.831762 0.103039 -1.617648 45.487974 5.834045 -2.639093 0.814464 32.779623 1.428732 0.000000 0.000000 0.000000 
-0.012696 0.929148 0.078960 -2.625148 -8.003294 1.019650 -1.556287 1.359337 11.274793 1.572674 -0.029729 -3.437292 -1.169550 -2.199814 0.852254 0.000000 0.000000 0.000000 -2.224600 2.598131 -25.835971 3.031243 0.233379 17.384252 -1.933188 -8.013069 6.932050 0.000000 0.000000 0.000000 4.425081 -0.532400 6.431787 -0.004958 0.009748 -2.192708 -3.439207 3.553745 8.097550 8.565118 -2.983680 -23.468840 0.000000 0.000000 0.000000 -23.398789 -5.694650 1.191109 -37.102623 -12.648599 -1.073662 -0.039900 -23.763662 0.938728 0.000000 0.000000 0.000000 19.954014 -0.038486 -1.809108 47.459271 5.192046 -2.932043 1.555697 32.151509 1.573968 0.000000 0.000000 0.000000 
